<svg xmlns="http://www.w3.org/2000/svg" viewBox="0 0 64 64">
  <rect width="64" height="64" rx="14" fill="#fcfbf9"/>
  <rect x="3" y="3" width="58" height="58" rx="12" fill="none" stroke="#2b2723" stroke-width="3"/>
  <path d="M32 11c4 4 5 7 3 10-2 3-7 3-9 0-2-3 0-6 6-10z" fill="#b5462f"/>
  <path d="M32 15c2 2 2 4 1 5-1 2-4 2-5 0-1-2 0-3 4-5z" fill="#fcfbf9"/>
  <path d="M26 25h12v15H26z" fill="#fcfbf9" stroke="#2b2723" stroke-width="3" stroke-linejoin="round"/>
  <path d="M32 23v5" fill="none" stroke="#2b2723" stroke-width="3" stroke-linecap="round"/>
  <path d="M14 40h36" fill="none" stroke="#2b2723" stroke-width="4" stroke-linecap="round"/>
  <path d="M21 44l-5 10M43 44l5 10" fill="none" stroke="#2b2723" stroke-width="4" stroke-linecap="round"/>
</svg>
